HIERARCHY
ROOT Hips
{
	OFFSET -3.958830 18.904000 13.208200
	CHANNELS 6 Xposition Yposition Zposition Zrotation Yrotation Xrotation 
	JOINT LHipJoint
	{
		OFFSET 0.000000 0.000000 0.000000
		CHANNELS 3 Zrotation Yrotation Xrotation
		JOINT LeftUpLeg
		{
			OFFSET 1.800000 -1.400000 0.085000
			CHANNELS 3 Zrotation Yrotation Xrotation
			JOINT LeftLeg
			{
				OFFSET 2.215000 -6.000000 0.000000
				CHANNELS 3 Zrotation Yrotation Xrotation
				JOINT LeftFoot
				{
					OFFSET 2.500000 -6.900000 0.000000
					CHANNELS 3 Zrotation Yrotation Xrotation
					JOINT LeftToeBase
					{
						OFFSET 0.200000 -0.500000 1.950000
						CHANNELS 3 Zrotation Yrotation Xrotation
						End Site
						{
							OFFSET 0.000000 0.000000 0.000000
						}
					}
				}
			}
		}
	}
	JOINT RHipJoint
	{
		OFFSET 0.000000 0.000000 0.000000
		CHANNELS 3 Zrotation Yrotation Xrotation
		JOINT RightUpLeg
		{
			OFFSET -1.800000 -1.400000 0.085000
			CHANNELS 3 Zrotation Yrotation Xrotation
			JOINT RightLeg
			{
				OFFSET -2.215000 -6.000000 0.000000
				CHANNELS 3 Zrotation Yrotation Xrotation
				JOINT RightFoot
				{
					OFFSET -2.500000 -6.900000 0.000000
					CHANNELS 3 Zrotation Yrotation Xrotation
					JOINT RightToeBase
					{
						OFFSET -0.200000 -0.500000 1.950000
						CHANNELS 3 Zrotation Yrotation Xrotation
						End Site
						{
							OFFSET 0.000000 0.000000 0.000000
						}
					}
				}
			}
		}
	}
	JOINT LowerBack
	{
		OFFSET 0.000000 0.000000 0.000000
		CHANNELS 3 Zrotation Yrotation Xrotation
		JOINT Spine
		{
			OFFSET -0.087000 1.940000 -0.288900
			CHANNELS 3 Zrotation Yrotation Xrotation
			JOINT Spine1
			{
				OFFSET 0.000000 1.950000 0.060000
				CHANNELS 3 Zrotation Yrotation Xrotation
				JOINT Neck
				{
					OFFSET 0.000000 0.000000 0.000000
					CHANNELS 3 Zrotation Yrotation Xrotation
					JOINT Neck1
					{
						OFFSET 0.000000 1.600000 0.340000
						CHANNELS 3 Zrotation Yrotation Xrotation
						JOINT Head
						{
							OFFSET 0.000000 1.667000 -0.240000
							CHANNELS 3 Zrotation Yrotation Xrotation
							End Site
							{
								OFFSET 0.000000 0.000000 0.000000
							}
						}
					}
				}
				JOINT LeftShoulder
				{
					OFFSET 0.000000 0.000000 0.000000
					CHANNELS 3 Zrotation Yrotation Xrotation
					JOINT LeftArm
					{
						OFFSET 2.700000 1.550000 -0.730000
						CHANNELS 3 Zrotation Yrotation Xrotation
						JOINT LeftForeArm
						{
							OFFSET 5.450000 0.000000 0.000000
							CHANNELS 3 Zrotation Yrotation Xrotation
							JOINT LeftHand
							{
								OFFSET 3.450000 0.000000 0.000000
								CHANNELS 3 Zrotation Yrotation Xrotation
								JOINT LeftHandIndex1
								{
									OFFSET 0.750000 0.000000 0.000000
									CHANNELS 3 Zrotation Yrotation Xrotation
									End Site
									{
										OFFSET 0.000000 0.000000 0.000000
									}
								}
							}
						}
					}
				}
				JOINT RightShoulder
				{
					OFFSET 0.000000 0.000000 0.000000
					CHANNELS 3 Zrotation Yrotation Xrotation
					JOINT RightArm
					{
						OFFSET -2.700000 1.550000 -0.730000
						CHANNELS 3 Zrotation Yrotation Xrotation
						JOINT RightForeArm
						{
							OFFSET -5.450000 0.000000 0.000000
							CHANNELS 3 Zrotation Yrotation Xrotation
							JOINT RightHand
							{
								OFFSET -3.450000 0.000000 0.000000
								CHANNELS 3 Zrotation Yrotation Xrotation
								JOINT RightHandIndex1
								{
									OFFSET -0.750000 0.000000 0.000000
									CHANNELS 3 Zrotation Yrotation Xrotation
									End Site
									{
										OFFSET 0.000000 0.000000 0.000000
									}
								}
							}
						}
					}
				}
			}
		}
	}
}
MOTION
Frames: 9
Frame Time: 0.016667
0.151340 16.828570 -1.428270 -5.698124 6.073986 -7.154404 -15.311095 13.726717 3.127619 22.201835 0.422507 -11.178952 -12.284063 11.938019 23.705695 0.166770 7.467756 2.315115 -0.107640 -0.662880 -0.269630 17.898696 -11.373198 2.083842 -14.448743 -0.488760 -2.530973 5.580605 -7.010271 18.698518 -0.148058 -4.980481 3.052680 -0.294120 0.839070 0.109600 -2.967662 -1.806557 -7.476910 3.326372 2.023021 5.409964 -6.346745 0.770589 -2.157492 7.305599 -11.232171 -14.163993 -22.631975 4.627480 30.127438 1.476380 -3.854360 10.161980 -12.836345 -1.822758 7.002313 -47.840647 15.471201 -10.532395 -53.262934 -36.137171 11.062326 -3.789845 3.316676 0.344990 0.385160 -0.562120 0.313870 0.147188 15.785081 7.118363 -14.466044 -5.255983 -10.515338 -130.967248 -9.260234 15.511491 2.422766 -2.396320 -0.442100 0.291750 0.237150 -0.079010 
0.171360 16.833840 -1.424610 -5.975986 6.511508 -7.247989 -15.294427 13.703460 3.145099 22.384466 0.523362 -11.322663 -12.352910 12.012314 23.771209 0.197230 7.438010 2.310622 -0.095920 -0.621610 -0.281650 17.911451 -11.392355 2.113028 -14.200721 -0.519405 -2.160589 5.477826 -6.934670 18.433470 -0.167166 -4.956247 3.070874 -0.287430 0.811670 0.093910 -3.022328 -1.726131 -7.532429 3.796481 2.174667 5.552622 -7.413522 1.156109 -2.382497 7.656823 -11.350826 -14.441159 -23.147252 4.639906 30.955980 1.956400 -4.346980 9.791520 -13.006925 -1.878447 6.972920 -47.623647 15.504955 -10.469528 -53.478532 -36.497606 11.358846 -3.750469 3.314637 0.344190 0.358190 -0.536740 0.320860 -0.376580 16.201765 7.325558 -14.865900 -5.022972 -10.567793 -131.463409 -9.367255 15.686262 2.450596 -2.386172 -0.419270 0.291820 0.220150 -0.062270 
0.202910 16.841550 -1.416690 -6.300835 7.290570 -7.346573 -15.250421 13.683051 3.118222 22.311757 0.692053 -11.656568 -11.974222 11.991479 24.076934 0.243446 7.329959 2.338478 -0.086130 -0.577330 -0.318560 17.945053 -11.446862 2.174615 -14.035620 -0.555222 -1.578399 5.460569 -6.864320 17.873327 -0.193655 -4.941256 3.107069 -0.293330 0.792740 0.073720 -3.155443 -1.580063 -7.587997 4.558536 2.533597 5.441979 -9.395468 2.009550 -2.310474 8.085941 -11.491742 -15.229328 -24.065595 4.820353 32.417858 3.426410 -5.602720 9.955110 -12.460952 -2.481462 7.191649 -47.704976 14.992018 -10.327327 -53.558599 -36.953816 11.684284 -3.689605 3.316018 0.341000 0.325290 -0.509140 0.345720 -1.684167 17.300402 7.952596 -14.540172 -5.012631 -11.063323 -132.355608 -9.525601 15.173252 2.498226 -2.409690 -0.384310 0.291840 0.195310 -0.027020 
0.235310 16.849690 -1.406890 -6.699774 8.484718 -7.452964 -15.221414 13.671242 3.086334 22.228628 0.827842 -12.139856 -11.425644 11.884251 24.379403 0.257179 7.234429 2.364271 -0.082730 -0.561530 -0.356070 17.965304 -11.492843 2.237325 -13.748264 -0.572888 -0.948853 5.515809 -6.846975 17.506084 -0.218974 -4.953737 3.119081 -0.301720 0.794960 0.065670 -3.257665 -1.461982 -7.637119 5.048755 2.913360 5.578424 -11.114938 2.898055 -2.317338 8.539879 -11.906412 -16.025165 -25.387956 4.927144 33.223800 5.165930 -7.371100 9.550490 -11.339073 -2.889241 7.187027 -48.394592 13.594739 -9.765961 -52.857923 -36.415352 11.397831 -3.654773 3.312165 0.345880 0.297540 -0.496440 0.365540 -3.542929 18.608395 8.597357 -14.731864 -4.501188 -11.703281 -131.269205 -9.606902 13.719033 2.548391 -2.408151 -0.363910 0.301120 0.192860 0.003340 
0.254370 16.856540 -1.408690 -7.085618 9.882996 -8.103257 -15.237629 13.669834 3.033631 22.258084 1.025482 -12.517449 -10.554720 11.792514 25.142175 0.242899 7.201878 2.367229 -0.095080 -0.554920 -0.390200 17.937144 -11.560502 2.315283 -13.419298 -0.618261 0.123927 5.572639 -6.896787 17.293861 -0.249724 -5.037028 3.096794 -0.300030 0.805580 0.062350 -3.228977 -1.281322 -7.707285 4.585708 3.711746 6.541744 -12.088795 4.061760 -2.370039 9.335464 -12.039695 -16.499927 -25.723260 4.474040 34.235263 5.335700 -8.657310 8.601080 -11.399348 -3.283946 6.665278 -48.194121 11.741231 -8.872704 -51.785027 -36.533596 11.413180 -3.662394 3.284906 0.344980 0.291450 -0.492060 0.366610 -4.920172 20.091224 9.121595 -15.553607 -3.164546 -12.525469 -127.802243 -11.449227 15.188939 2.620655 -2.352470 -0.359300 0.325810 0.212400 0.022630 
0.264930 16.869460 -1.428340 -7.519615 11.302858 -9.332136 -15.269129 13.683731 2.964484 22.452993 1.383999 -12.629208 -9.548457 11.716022 26.061864 0.210940 7.213256 2.344115 -0.083070 -0.532280 -0.398070 17.894919 -11.618272 2.406458 -13.063827 -0.652119 1.669110 5.621284 -6.967078 17.104695 -0.298197 -5.162784 3.055152 -0.280060 0.794230 0.066360 -3.160944 -1.119453 -7.792095 4.153868 4.571503 8.493501 -13.028809 5.462437 -1.854636 10.396340 -12.270070 -17.101708 -26.116854 3.966854 35.163841 5.163220 -9.774740 6.792020 -11.922017 -4.021917 6.064889 -47.132609 9.943430 -8.157400 -52.352318 -37.577237 12.203260 -3.660757 3.272746 0.361830 0.278140 -0.477500 0.363050 -6.320230 22.277458 9.717817 -17.382761 -1.559342 -13.734395 -122.690492 -14.597460 17.626616 2.723637 -2.272391 -0.356630 0.346070 0.226700 0.024650 
0.268260 16.881940 -1.460170 -7.695075 13.396143 -10.310192 -15.251293 13.625082 2.848129 22.034075 1.559226 -13.321836 -8.282807 11.519671 27.356039 0.154691 7.152037 2.342491 -0.042770 -0.494130 -0.324880 17.911592 -11.704618 2.504066 -13.183158 -0.639530 2.932993 6.276015 -7.201266 16.764745 -0.367258 -5.288259 3.003673 -0.258760 0.733550 0.051400 -3.264933 -0.832461 -7.829728 4.091576 5.355234 10.084470 -15.327214 7.104182 -0.126873 11.102569 -11.886170 -17.403760 -25.402129 2.509403 36.332050 4.484730 -10.937490 4.240400 -12.773489 -5.916631 5.736776 -43.975853 7.751496 -7.596528 -54.088825 -39.766211 13.962734 -3.617795 3.239505 0.405600 0.235550 -0.434850 0.339130 -6.975979 24.423079 10.053144 -19.366742 -0.951716 -15.032821 -118.702839 -17.354121 19.047366 2.864494 -2.192729 -0.355490 0.373950 0.210130 -0.003640 
0.270760 16.901040 -1.499650 -8.004853 15.882543 -10.814402 -15.199425 13.542850 2.749859 21.296912 1.496541 -14.813931 -6.739462 11.093807 28.677678 0.116903 7.011556 2.384068 -0.018580 -0.459170 -0.299210 17.961877 -11.807077 2.600076 -13.126438 -0.592409 3.597271 7.024657 -7.413235 16.500248 -0.413849 -5.393850 2.977967 -0.243980 0.714970 0.043540 -3.487746 -0.505543 -7.876615 4.610993 5.641513 11.556332 -18.073722 8.459677 1.360758 11.535329 -11.510223 -17.726185 -24.539231 1.104282 36.788410 4.508250 -12.391010 2.761190 -13.288890 -8.037777 5.540823 -40.803634 5.332648 -6.993804 -55.094289 -41.228614 15.279565 -3.584859 3.223191 0.411220 0.219600 -0.410790 0.345910 -7.540749 26.554631 10.441313 -20.976927 -0.728067 -16.197469 -114.400780 -19.183959 18.559107 3.021572 -2.151191 -0.345440 0.398530 0.187550 0.001220 
0.275910 16.917810 -1.511850 -8.437978 17.541619 -10.296455 -15.093884 13.367625 2.679767 20.696259 1.600509 -16.553514 -5.719379 10.806866 29.219565 0.081814 6.862077 2.429762 -0.049920 -0.492040 -0.310340 18.083290 -11.922732 2.674554 -12.783928 -0.366864 3.162173 7.735759 -7.499329 16.194422 -0.414965 -5.392237 2.984027 -0.270540 0.720150 0.033770 -3.869981 -0.019940 -7.914032 5.989967 6.031702 11.489340 -21.151604 9.845711 2.619990 11.476468 -11.174970 -18.195214 -23.858708 -0.106304 37.198511 5.035710 -13.925400 2.278680 -12.547424 -9.980857 5.909453 -38.591758 3.905941 -6.646790 -56.697218 -42.431103 16.632159 -3.574666 3.196512 0.416010 0.213260 -0.407900 0.331300 -8.437151 28.276476 10.709510 -22.109907 0.565064 -17.109196 -108.837907 -20.465410 16.961522 3.185777 -2.087075 -0.348420 0.418500 0.203840 0.006490 
